<svg width="92" height="92" viewBox="0 0 92 92" fill="none" xmlns="http://www.w3.org/2000/svg">
<g id="Frame">
<g id="Group">
<path id="Vector" d="M85.4307 37.2456H89.8007V54.7544H85.4307V37.2456Z" fill="black"/>
<path id="Vector_2" d="M28.4769 37.2456H32.8469V32.8468H37.2456V28.4768H54.7544V32.8468H59.1531V28.4768H72.2919V32.8468H76.6619V67.8931H81.0606V59.1531H85.4306V54.7543H81.0606V37.2456H85.4306V32.8468H81.0606V15.3381H76.6619V19.7081H72.2919V15.3381H63.5231V10.9393H32.8469V15.3381H28.4769V19.7081H24.1069V28.4768H19.7081V15.3381H15.3381V28.4768H10.9681V32.8468H28.4769V37.2456Z" fill="black"/>
<path id="Vector_3" d="M72.2919 67.8931H76.6619V72.2918H72.2919V67.8931Z" fill="black"/>
<path id="Vector_4" d="M72.2919 10.9393H76.6619V15.3381H72.2919V10.9393Z" fill="black"/>
<path id="Vector_5" d="M67.8931 59.1531H72.2919V63.5231H67.8931V59.1531Z" fill="black"/>
<path id="Vector_6" d="M67.8931 45.9856H72.2919V54.7543H67.8931V45.9856Z" fill="black"/>
<path id="Vector_7" d="M67.8931 6.56934H72.2919V10.9393H67.8931V6.56934Z" fill="black"/>
<path id="Vector_8" d="M32.8469 72.2919V81.075H24.1069V85.445H15.3381V89.815H85.4306V85.445H76.6619V81.075H67.8931V76.6762H72.2919V72.3062L32.8469 72.2919ZM63.5231 85.4306H46.0144V81.075H37.2456V76.6762H63.5375L63.5231 85.4306Z" fill="black"/>
<path id="Vector_9" d="M54.7544 63.5231H67.8931V67.8931H54.7544V63.5231Z" fill="black"/>
<path id="Vector_10" d="M50.3844 59.1531H54.7544V63.5231H50.3844V59.1531Z" fill="black"/>
<path id="Vector_11" d="M46.0144 45.9856H50.3844V54.7543H46.0144V45.9856Z" fill="black"/>
<path id="Vector_12" d="M46.0144 32.8468H54.7544V37.2456H46.0144V32.8468Z" fill="black"/>
<path id="Vector_13" d="M32.8469 37.2456H37.2457V54.7544H32.8469V37.2456Z" fill="black"/>
<path id="Vector_14" d="M28.4769 2.19934H67.8932V6.56934H28.4769V2.19934Z" fill="black"/>
<path id="Vector_15" d="M28.4769 67.8931H32.8469V72.2918H28.4769V67.8931Z" fill="black"/>
<path id="Vector_16" d="M28.4769 54.7544H32.8469V59.1531H28.4769V54.7544Z" fill="black"/>
<path id="Vector_17" d="M10.9681 59.1531V63.5231H24.1069V67.8931H28.4769V59.1531H10.9681Z" fill="black"/>
<path id="Vector_18" d="M24.1069 6.56934H28.4769V10.9393H24.1069V6.56934Z" fill="black"/>
<path id="Vector_19" d="M19.7081 10.9393H24.1069V15.3381H19.7081V10.9393Z" fill="black"/>
<path id="Vector_20" d="M15.3381 37.2456H19.7081V41.6156H15.3381V37.2456Z" fill="black"/>
<path id="Vector_21" d="M10.9681 41.6156H15.3381V50.3844H10.9681V41.6156Z" fill="black"/>
<path id="Vector_22" d="M6.5694 54.7544H10.9681V59.1531H6.5694V54.7544Z" fill="black"/>
<path id="Vector_23" d="M6.5694 32.8468H10.9681V37.2456H6.5694V32.8468Z" fill="black"/>
<path id="Vector_24" d="M2.1994 37.2456H6.5694V54.7544H2.1994V37.2456Z" fill="black"/>
</g>
</g>
</svg>
