<svg width="40" height="40" viewBox="0 0 40 40" fill="none" xmlns="http://www.w3.org/2000/svg">
<g id="Frame" clip-path="url(#clip0_454_7085)">
<g id="Group">
<path id="Vector" d="M38.1 15.2375H40V24.7625H38.1V15.2375Z" fill="black"/>
<path id="Vector_2" d="M36.1875 24.7625H38.1V28.5625H36.1875V24.7625Z" fill="black"/>
<path id="Vector_3" d="M34.2875 28.5625H36.1875V32.375H34.2875V28.5625Z" fill="black"/>
<path id="Vector_4" d="M34.2875 7.61255H36.1875V11.425H34.2875V7.61255Z" fill="black"/>
<path id="Vector_5" d="M32.3875 32.375H34.2874V34.275H32.3875V32.375Z" fill="black"/>
<path id="Vector_6" d="M32.3875 5.7124H34.2874V7.6124H32.3875V5.7124Z" fill="black"/>
<path id="Vector_7" d="M28.575 34.2749H32.3875V36.1874H28.575V34.2749Z" fill="black"/>
<path id="Vector_8" d="M28.575 3.80005H32.3875V5.71255H28.575V3.80005Z" fill="black"/>
<path id="Vector_9" d="M24.7625 36.1875H28.575V38.0875H24.7625V36.1875Z" fill="black"/>
<path id="Vector_10" d="M24.7625 1.8999H28.575V3.7999H24.7625V1.8999Z" fill="black"/>
<path id="Vector_11" d="M15.2375 38.0874H24.7625V39.9999H15.2375V38.0874Z" fill="black"/>
<path id="Vector_12" d="M17.15 28.5625H24.7625V30.475H17.15V28.5625Z" fill="black"/>
<path id="Vector_13" d="M15.2375 0H24.7625V1.9H15.2375V0Z" fill="black"/>
<path id="Vector_14" d="M15.2375 26.6626H17.15V28.5626H15.2375V26.6626Z" fill="black"/>
<path id="Vector_15" d="M11.425 36.1875H15.2375V38.0875H11.425V36.1875Z" fill="black"/>
<path id="Vector_16" d="M11.425 1.8999H15.2375V3.7999H11.425V1.8999Z" fill="black"/>
<path id="Vector_17" d="M7.625 34.2749H11.425V36.1874H7.625V34.2749Z" fill="black"/>
<path id="Vector_18" d="M7.625 3.80005H11.425V5.71255H7.625V3.80005Z" fill="black"/>
<path id="Vector_19" d="M5.71252 32.375H7.62502V34.275H5.71252V32.375Z" fill="black"/>
<path id="Vector_20" d="M5.71252 5.7124H7.62502V7.6124H5.71252V5.7124Z" fill="black"/>
<path id="Vector_21" d="M3.8125 28.5625H5.7125V32.375H3.8125V28.5625Z" fill="black"/>
<path id="Vector_22" d="M3.81248 19.0375H5.71248V20.95H7.62498V22.85H15.2375V20.95H17.15V19.0375H19.05V17.1375H22.8625V19.0375H24.7625V20.95H26.6625V22.85H34.2875V20.95H36.1875V15.2375H38.1V11.425H36.1875V13.325H3.81248V11.425H1.91248V15.2375H3.81248V19.0375Z" fill="black"/>
<path id="Vector_23" d="M3.8125 7.61255H5.7125V11.425H3.8125V7.61255Z" fill="black"/>
<path id="Vector_24" d="M1.91248 24.7625H3.81248V28.5625H1.91248V24.7625Z" fill="black"/>
<path id="Vector_25" d="M0 15.2375H1.9125V24.7625H0V15.2375Z" fill="black"/>
</g>
</g>
<defs>
<clipPath id="clip0_454_7085">
<rect width="40" height="40" fill="white"/>
</clipPath>
</defs>
</svg>
