<svg width="1083" height="21" viewBox="0 0 1083 21" fill="none" xmlns="http://www.w3.org/2000/svg">
<g clip-path="url(#clip0_249_3361)">
<circle cx="1.5" cy="1.5" r="1.5" fill="#D2D6DB"/>
<circle cx="10.5" cy="1.5" r="1.5" fill="#D2D6DB"/>
<circle cx="19.5" cy="1.5" r="1.5" fill="#D2D6DB"/>
<circle cx="28.5" cy="1.5" r="1.5" fill="#D2D6DB"/>
<circle cx="37.5" cy="1.5" r="1.5" fill="#D2D6DB"/>
<circle cx="46.5" cy="1.5" r="1.5" fill="#D2D6DB"/>
<circle cx="55.5" cy="1.5" r="1.5" fill="#D2D6DB"/>
<circle cx="64.5" cy="1.5" r="1.5" fill="#D2D6DB"/>
<circle cx="73.5" cy="1.5" r="1.5" fill="#D2D6DB"/>
<circle cx="82.5" cy="1.5" r="1.5" fill="#D2D6DB"/>
<circle cx="91.5" cy="1.5" r="1.5" fill="#D2D6DB"/>
<circle cx="100.5" cy="1.5" r="1.5" fill="#D2D6DB"/>
<circle cx="109.5" cy="1.5" r="1.5" fill="#D2D6DB"/>
<circle cx="118.5" cy="1.5" r="1.5" fill="#D2D6DB"/>
<circle cx="127.5" cy="1.5" r="1.5" fill="#D2D6DB"/>
<circle cx="136.5" cy="1.5" r="1.5" fill="#D2D6DB"/>
<circle cx="145.5" cy="1.5" r="1.5" fill="#D2D6DB"/>
<circle cx="154.5" cy="1.5" r="1.5" fill="#D2D6DB"/>
<circle cx="163.5" cy="1.5" r="1.5" fill="#D2D6DB"/>
<circle cx="172.5" cy="1.5" r="1.5" fill="#D2D6DB"/>
<circle cx="181.5" cy="1.5" r="1.5" fill="#D2D6DB"/>
<circle cx="190.5" cy="1.5" r="1.5" fill="#D2D6DB"/>
<circle cx="199.5" cy="1.5" r="1.5" fill="#D2D6DB"/>
<circle cx="208.5" cy="1.5" r="1.5" fill="#D2D6DB"/>
<circle cx="217.5" cy="1.5" r="1.5" fill="#D2D6DB"/>
<circle cx="226.5" cy="1.5" r="1.5" fill="#D2D6DB"/>
<circle cx="235.5" cy="1.5" r="1.5" fill="#D2D6DB"/>
<circle cx="244.5" cy="1.5" r="1.5" fill="#D2D6DB"/>
<circle cx="253.5" cy="1.5" r="1.5" fill="#D2D6DB"/>
<circle cx="262.5" cy="1.5" r="1.5" fill="#D2D6DB"/>
<circle cx="271.5" cy="1.5" r="1.5" fill="#D2D6DB"/>
<circle cx="280.5" cy="1.5" r="1.5" fill="#D2D6DB"/>
<circle cx="289.5" cy="1.5" r="1.5" fill="#D2D6DB"/>
<circle cx="298.5" cy="1.5" r="1.5" fill="#D2D6DB"/>
<circle cx="307.5" cy="1.5" r="1.5" fill="#D2D6DB"/>
<circle cx="316.5" cy="1.5" r="1.5" fill="#D2D6DB"/>
<circle cx="325.5" cy="1.5" r="1.5" fill="#D2D6DB"/>
<circle cx="334.5" cy="1.5" r="1.5" fill="#D2D6DB"/>
<circle cx="343.5" cy="1.5" r="1.5" fill="#D2D6DB"/>
<circle cx="352.5" cy="1.5" r="1.5" fill="#D2D6DB"/>
<circle cx="361.5" cy="1.5" r="1.5" fill="#D2D6DB"/>
<circle cx="370.5" cy="1.5" r="1.5" fill="#D2D6DB"/>
<circle cx="379.5" cy="1.5" r="1.5" fill="#D2D6DB"/>
<circle cx="388.5" cy="1.5" r="1.5" fill="#D2D6DB"/>
<circle cx="397.5" cy="1.5" r="1.5" fill="#D2D6DB"/>
<circle cx="406.5" cy="1.5" r="1.5" fill="#D2D6DB"/>
<circle cx="415.5" cy="1.5" r="1.5" fill="#D2D6DB"/>
<circle cx="424.5" cy="1.5" r="1.5" fill="#D2D6DB"/>
<circle cx="433.5" cy="1.5" r="1.5" fill="#D2D6DB"/>
<circle cx="442.5" cy="1.5" r="1.5" fill="#D2D6DB"/>
<circle cx="451.5" cy="1.5" r="1.5" fill="#D2D6DB"/>
<circle cx="460.5" cy="1.5" r="1.5" fill="#D2D6DB"/>
<circle cx="469.5" cy="1.5" r="1.5" fill="#D2D6DB"/>
<circle cx="478.5" cy="1.5" r="1.5" fill="#D2D6DB"/>
<circle cx="487.5" cy="1.5" r="1.5" fill="#D2D6DB"/>
<circle cx="496.5" cy="1.5" r="1.5" fill="#D2D6DB"/>
<circle cx="505.5" cy="1.5" r="1.5" fill="#D2D6DB"/>
<circle cx="514.5" cy="1.5" r="1.5" fill="#D2D6DB"/>
<circle cx="523.5" cy="1.5" r="1.5" fill="#D2D6DB"/>
<circle cx="532.5" cy="1.5" r="1.5" fill="#D2D6DB"/>
<circle cx="541.5" cy="1.5" r="1.5" fill="#D2D6DB"/>
<circle cx="550.5" cy="1.5" r="1.5" fill="#D2D6DB"/>
<circle cx="559.5" cy="1.5" r="1.5" fill="#D2D6DB"/>
<circle cx="568.5" cy="1.5" r="1.5" fill="#D2D6DB"/>
<circle cx="577.5" cy="1.5" r="1.5" fill="#D2D6DB"/>
<circle cx="586.5" cy="1.5" r="1.5" fill="#D2D6DB"/>
<circle cx="595.5" cy="1.5" r="1.5" fill="#D2D6DB"/>
<circle cx="604.5" cy="1.5" r="1.5" fill="#D2D6DB"/>
<circle cx="613.5" cy="1.5" r="1.5" fill="#D2D6DB"/>
<circle cx="622.5" cy="1.5" r="1.5" fill="#D2D6DB"/>
<circle cx="631.5" cy="1.5" r="1.5" fill="#D2D6DB"/>
<circle cx="640.5" cy="1.5" r="1.5" fill="#D2D6DB"/>
<circle cx="649.5" cy="1.5" r="1.5" fill="#D2D6DB"/>
<circle cx="658.5" cy="1.5" r="1.5" fill="#D2D6DB"/>
<circle cx="667.5" cy="1.5" r="1.5" fill="#D2D6DB"/>
<circle cx="676.5" cy="1.5" r="1.5" fill="#D2D6DB"/>
<circle cx="685.5" cy="1.5" r="1.5" fill="#D2D6DB"/>
<circle cx="694.5" cy="1.5" r="1.5" fill="#D2D6DB"/>
<circle cx="703.5" cy="1.5" r="1.5" fill="#D2D6DB"/>
<circle cx="712.5" cy="1.5" r="1.5" fill="#D2D6DB"/>
<circle cx="721.5" cy="1.5" r="1.5" fill="#D2D6DB"/>
<circle cx="730.5" cy="1.5" r="1.5" fill="#D2D6DB"/>
<circle cx="739.5" cy="1.5" r="1.5" fill="#D2D6DB"/>
<circle cx="748.5" cy="1.5" r="1.5" fill="#D2D6DB"/>
<circle cx="757.5" cy="1.5" r="1.5" fill="#D2D6DB"/>
<circle cx="766.5" cy="1.5" r="1.5" fill="#D2D6DB"/>
<circle cx="775.5" cy="1.5" r="1.5" fill="#D2D6DB"/>
<circle cx="784.5" cy="1.5" r="1.5" fill="#D2D6DB"/>
<circle cx="793.5" cy="1.5" r="1.5" fill="#D2D6DB"/>
<circle cx="802.5" cy="1.5" r="1.5" fill="#D2D6DB"/>
<circle cx="811.5" cy="1.5" r="1.5" fill="#D2D6DB"/>
<circle cx="820.5" cy="1.5" r="1.5" fill="#D2D6DB"/>
<circle cx="829.5" cy="1.5" r="1.5" fill="#D2D6DB"/>
<circle cx="838.5" cy="1.5" r="1.5" fill="#D2D6DB"/>
<circle cx="847.5" cy="1.5" r="1.5" fill="#D2D6DB"/>
<circle cx="856.5" cy="1.5" r="1.5" fill="#D2D6DB"/>
<circle cx="865.5" cy="1.5" r="1.5" fill="#D2D6DB"/>
<circle cx="874.5" cy="1.5" r="1.5" fill="#D2D6DB"/>
<circle cx="883.5" cy="1.5" r="1.5" fill="#D2D6DB"/>
<circle cx="892.5" cy="1.5" r="1.5" fill="#D2D6DB"/>
<circle cx="901.5" cy="1.5" r="1.5" fill="#D2D6DB"/>
<circle cx="910.5" cy="1.5" r="1.5" fill="#D2D6DB"/>
<circle cx="919.5" cy="1.5" r="1.5" fill="#D2D6DB"/>
<circle cx="928.5" cy="1.5" r="1.5" fill="#D2D6DB"/>
<circle cx="937.5" cy="1.5" r="1.5" fill="#D2D6DB"/>
<circle cx="946.5" cy="1.5" r="1.5" fill="#D2D6DB"/>
<circle cx="955.5" cy="1.5" r="1.5" fill="#D2D6DB"/>
<circle cx="964.5" cy="1.5" r="1.5" fill="#D2D6DB"/>
<circle cx="973.5" cy="1.5" r="1.5" fill="#D2D6DB"/>
<circle cx="982.5" cy="1.5" r="1.5" fill="#D2D6DB"/>
<circle cx="991.5" cy="1.5" r="1.5" fill="#D2D6DB"/>
<circle cx="1000.5" cy="1.5" r="1.5" fill="#D2D6DB"/>
<circle cx="1009.5" cy="1.5" r="1.5" fill="#D2D6DB"/>
<circle cx="1018.5" cy="1.5" r="1.5" fill="#D2D6DB"/>
<circle cx="1027.5" cy="1.5" r="1.5" fill="#D2D6DB"/>
<circle cx="1036.5" cy="1.5" r="1.5" fill="#D2D6DB"/>
<circle cx="1045.5" cy="1.5" r="1.5" fill="#D2D6DB"/>
<circle cx="1054.5" cy="1.5" r="1.5" fill="#D2D6DB"/>
<circle cx="1063.5" cy="1.5" r="1.5" fill="#D2D6DB"/>
<circle cx="1072.5" cy="1.5" r="1.5" fill="#D2D6DB"/>
<circle cx="1081.5" cy="1.5" r="1.5" fill="#D2D6DB"/>
<circle cx="1.5" cy="10.5" r="1.5" fill="#D2D6DB"/>
<circle cx="10.5" cy="10.5" r="1.5" fill="#D2D6DB"/>
<circle cx="19.5" cy="10.5" r="1.5" fill="#D2D6DB"/>
<circle cx="28.5" cy="10.5" r="1.5" fill="#D2D6DB"/>
<circle cx="37.5" cy="10.5" r="1.5" fill="#D2D6DB"/>
<circle cx="46.5" cy="10.5" r="1.5" fill="#D2D6DB"/>
<circle cx="55.5" cy="10.5" r="1.5" fill="#D2D6DB"/>
<circle cx="64.5" cy="10.5" r="1.5" fill="#D2D6DB"/>
<circle cx="73.5" cy="10.5" r="1.5" fill="#D2D6DB"/>
<circle cx="82.5" cy="10.5" r="1.5" fill="#D2D6DB"/>
<circle cx="91.5" cy="10.5" r="1.5" fill="#D2D6DB"/>
<circle cx="100.5" cy="10.5" r="1.5" fill="#D2D6DB"/>
<circle cx="109.5" cy="10.5" r="1.5" fill="#D2D6DB"/>
<circle cx="118.5" cy="10.5" r="1.5" fill="#D2D6DB"/>
<circle cx="127.5" cy="10.5" r="1.5" fill="#D2D6DB"/>
<circle cx="136.5" cy="10.5" r="1.5" fill="#D2D6DB"/>
<circle cx="145.5" cy="10.5" r="1.5" fill="#D2D6DB"/>
<circle cx="154.5" cy="10.5" r="1.5" fill="#D2D6DB"/>
<circle cx="163.5" cy="10.5" r="1.5" fill="#D2D6DB"/>
<circle cx="172.5" cy="10.5" r="1.5" fill="#D2D6DB"/>
<circle cx="181.5" cy="10.5" r="1.5" fill="#D2D6DB"/>
<circle cx="190.5" cy="10.5" r="1.5" fill="#D2D6DB"/>
<circle cx="199.5" cy="10.5" r="1.5" fill="#D2D6DB"/>
<circle cx="208.5" cy="10.5" r="1.5" fill="#D2D6DB"/>
<circle cx="217.5" cy="10.5" r="1.5" fill="#D2D6DB"/>
<circle cx="226.5" cy="10.5" r="1.5" fill="#D2D6DB"/>
<circle cx="235.5" cy="10.5" r="1.5" fill="#D2D6DB"/>
<circle cx="244.5" cy="10.5" r="1.5" fill="#D2D6DB"/>
<circle cx="253.5" cy="10.5" r="1.5" fill="#D2D6DB"/>
<circle cx="262.5" cy="10.5" r="1.5" fill="#D2D6DB"/>
<circle cx="271.5" cy="10.5" r="1.5" fill="#D2D6DB"/>
<circle cx="280.5" cy="10.5" r="1.5" fill="#D2D6DB"/>
<circle cx="289.5" cy="10.5" r="1.5" fill="#D2D6DB"/>
<circle cx="298.5" cy="10.5" r="1.5" fill="#D2D6DB"/>
<circle cx="307.5" cy="10.5" r="1.5" fill="#D2D6DB"/>
<circle cx="316.5" cy="10.5" r="1.5" fill="#D2D6DB"/>
<circle cx="325.5" cy="10.5" r="1.5" fill="#D2D6DB"/>
<circle cx="334.5" cy="10.5" r="1.5" fill="#D2D6DB"/>
<circle cx="343.5" cy="10.5" r="1.5" fill="#D2D6DB"/>
<circle cx="352.5" cy="10.5" r="1.5" fill="#D2D6DB"/>
<circle cx="361.5" cy="10.5" r="1.5" fill="#D2D6DB"/>
<circle cx="370.5" cy="10.5" r="1.5" fill="#D2D6DB"/>
<circle cx="379.5" cy="10.5" r="1.5" fill="#D2D6DB"/>
<circle cx="388.5" cy="10.5" r="1.5" fill="#D2D6DB"/>
<circle cx="397.5" cy="10.5" r="1.5" fill="#D2D6DB"/>
<circle cx="406.5" cy="10.5" r="1.5" fill="#D2D6DB"/>
<circle cx="415.5" cy="10.5" r="1.5" fill="#D2D6DB"/>
<circle cx="424.5" cy="10.5" r="1.5" fill="#D2D6DB"/>
<circle cx="433.5" cy="10.5" r="1.5" fill="#D2D6DB"/>
<circle cx="442.5" cy="10.5" r="1.5" fill="#D2D6DB"/>
<circle cx="451.5" cy="10.5" r="1.5" fill="#D2D6DB"/>
<circle cx="460.5" cy="10.5" r="1.5" fill="#D2D6DB"/>
<circle cx="469.5" cy="10.5" r="1.5" fill="#D2D6DB"/>
<circle cx="478.5" cy="10.5" r="1.5" fill="#D2D6DB"/>
<circle cx="487.5" cy="10.5" r="1.5" fill="#D2D6DB"/>
<circle cx="496.5" cy="10.5" r="1.5" fill="#D2D6DB"/>
<circle cx="505.5" cy="10.5" r="1.5" fill="#D2D6DB"/>
<circle cx="514.5" cy="10.5" r="1.5" fill="#D2D6DB"/>
<circle cx="523.5" cy="10.5" r="1.5" fill="#D2D6DB"/>
<circle cx="532.5" cy="10.5" r="1.5" fill="#D2D6DB"/>
<circle cx="541.5" cy="10.5" r="1.5" fill="#D2D6DB"/>
<circle cx="550.5" cy="10.5" r="1.5" fill="#D2D6DB"/>
<circle cx="559.5" cy="10.5" r="1.5" fill="#D2D6DB"/>
<circle cx="568.5" cy="10.5" r="1.5" fill="#D2D6DB"/>
<circle cx="577.5" cy="10.5" r="1.5" fill="#D2D6DB"/>
<circle cx="586.5" cy="10.5" r="1.5" fill="#D2D6DB"/>
<circle cx="595.5" cy="10.5" r="1.5" fill="#D2D6DB"/>
<circle cx="604.5" cy="10.5" r="1.5" fill="#D2D6DB"/>
<circle cx="613.5" cy="10.5" r="1.5" fill="#D2D6DB"/>
<circle cx="622.5" cy="10.5" r="1.5" fill="#D2D6DB"/>
<circle cx="631.5" cy="10.5" r="1.5" fill="#D2D6DB"/>
<circle cx="640.5" cy="10.5" r="1.5" fill="#D2D6DB"/>
<circle cx="649.5" cy="10.5" r="1.5" fill="#D2D6DB"/>
<circle cx="658.5" cy="10.5" r="1.5" fill="#D2D6DB"/>
<circle cx="667.5" cy="10.5" r="1.5" fill="#D2D6DB"/>
<circle cx="676.5" cy="10.5" r="1.5" fill="#D2D6DB"/>
<circle cx="685.5" cy="10.5" r="1.5" fill="#D2D6DB"/>
<circle cx="694.5" cy="10.5" r="1.5" fill="#D2D6DB"/>
<circle cx="703.5" cy="10.5" r="1.5" fill="#D2D6DB"/>
<circle cx="712.5" cy="10.5" r="1.5" fill="#D2D6DB"/>
<circle cx="721.5" cy="10.5" r="1.5" fill="#D2D6DB"/>
<circle cx="730.5" cy="10.5" r="1.5" fill="#D2D6DB"/>
<circle cx="739.5" cy="10.5" r="1.5" fill="#D2D6DB"/>
<circle cx="748.5" cy="10.5" r="1.5" fill="#D2D6DB"/>
<circle cx="757.5" cy="10.5" r="1.5" fill="#D2D6DB"/>
<circle cx="766.5" cy="10.5" r="1.5" fill="#D2D6DB"/>
<circle cx="775.5" cy="10.5" r="1.5" fill="#D2D6DB"/>
<circle cx="784.5" cy="10.5" r="1.5" fill="#D2D6DB"/>
<circle cx="793.5" cy="10.5" r="1.5" fill="#D2D6DB"/>
<circle cx="802.5" cy="10.5" r="1.5" fill="#D2D6DB"/>
<circle cx="811.5" cy="10.5" r="1.5" fill="#D2D6DB"/>
<circle cx="820.5" cy="10.5" r="1.5" fill="#D2D6DB"/>
<circle cx="829.5" cy="10.5" r="1.5" fill="#D2D6DB"/>
<circle cx="838.5" cy="10.5" r="1.5" fill="#D2D6DB"/>
<circle cx="847.5" cy="10.5" r="1.5" fill="#D2D6DB"/>
<circle cx="856.5" cy="10.5" r="1.5" fill="#D2D6DB"/>
<circle cx="865.5" cy="10.5" r="1.5" fill="#D2D6DB"/>
<circle cx="874.5" cy="10.5" r="1.5" fill="#D2D6DB"/>
<circle cx="883.5" cy="10.5" r="1.5" fill="#D2D6DB"/>
<circle cx="892.5" cy="10.5" r="1.5" fill="#D2D6DB"/>
<circle cx="901.5" cy="10.5" r="1.5" fill="#D2D6DB"/>
<circle cx="910.5" cy="10.5" r="1.5" fill="#D2D6DB"/>
<circle cx="919.5" cy="10.5" r="1.5" fill="#D2D6DB"/>
<circle cx="928.5" cy="10.5" r="1.5" fill="#D2D6DB"/>
<circle cx="937.5" cy="10.5" r="1.5" fill="#D2D6DB"/>
<circle cx="946.5" cy="10.5" r="1.5" fill="#D2D6DB"/>
<circle cx="955.5" cy="10.5" r="1.5" fill="#D2D6DB"/>
<circle cx="964.5" cy="10.5" r="1.5" fill="#D2D6DB"/>
<circle cx="973.5" cy="10.5" r="1.5" fill="#D2D6DB"/>
<circle cx="982.5" cy="10.5" r="1.5" fill="#D2D6DB"/>
<circle cx="991.5" cy="10.5" r="1.5" fill="#D2D6DB"/>
<circle cx="1000.5" cy="10.5" r="1.5" fill="#D2D6DB"/>
<circle cx="1009.5" cy="10.5" r="1.5" fill="#D2D6DB"/>
<circle cx="1018.5" cy="10.5" r="1.5" fill="#D2D6DB"/>
<circle cx="1027.5" cy="10.5" r="1.5" fill="#D2D6DB"/>
<circle cx="1036.5" cy="10.5" r="1.5" fill="#D2D6DB"/>
<circle cx="1045.5" cy="10.5" r="1.5" fill="#D2D6DB"/>
<circle cx="1054.5" cy="10.5" r="1.5" fill="#D2D6DB"/>
<circle cx="1063.5" cy="10.5" r="1.5" fill="#D2D6DB"/>
<circle cx="1072.5" cy="10.5" r="1.5" fill="#D2D6DB"/>
<circle cx="1081.5" cy="10.5" r="1.5" fill="#D2D6DB"/>
<circle cx="1.5" cy="19.5" r="1.5" fill="#D2D6DB"/>
<circle cx="10.5" cy="19.5" r="1.5" fill="#D2D6DB"/>
<circle cx="19.5" cy="19.5" r="1.5" fill="#D2D6DB"/>
<circle cx="28.5" cy="19.5" r="1.5" fill="#D2D6DB"/>
<circle cx="37.5" cy="19.5" r="1.5" fill="#D2D6DB"/>
<circle cx="46.5" cy="19.5" r="1.5" fill="#D2D6DB"/>
<circle cx="55.5" cy="19.5" r="1.5" fill="#D2D6DB"/>
<circle cx="64.5" cy="19.5" r="1.5" fill="#D2D6DB"/>
<circle cx="73.5" cy="19.5" r="1.5" fill="#D2D6DB"/>
<circle cx="82.5" cy="19.5" r="1.5" fill="#D2D6DB"/>
<circle cx="91.5" cy="19.5" r="1.5" fill="#D2D6DB"/>
<circle cx="100.5" cy="19.5" r="1.5" fill="#D2D6DB"/>
<circle cx="109.5" cy="19.5" r="1.5" fill="#D2D6DB"/>
<circle cx="118.5" cy="19.5" r="1.5" fill="#D2D6DB"/>
<circle cx="127.5" cy="19.5" r="1.5" fill="#D2D6DB"/>
<circle cx="136.5" cy="19.5" r="1.5" fill="#D2D6DB"/>
<circle cx="145.5" cy="19.5" r="1.5" fill="#D2D6DB"/>
<circle cx="154.5" cy="19.5" r="1.5" fill="#D2D6DB"/>
<circle cx="163.5" cy="19.5" r="1.5" fill="#D2D6DB"/>
<circle cx="172.5" cy="19.5" r="1.5" fill="#D2D6DB"/>
<circle cx="181.5" cy="19.5" r="1.5" fill="#D2D6DB"/>
<circle cx="190.5" cy="19.5" r="1.5" fill="#D2D6DB"/>
<circle cx="199.5" cy="19.5" r="1.5" fill="#D2D6DB"/>
<circle cx="208.5" cy="19.5" r="1.5" fill="#D2D6DB"/>
<circle cx="217.5" cy="19.5" r="1.5" fill="#D2D6DB"/>
<circle cx="226.5" cy="19.5" r="1.5" fill="#D2D6DB"/>
<circle cx="235.5" cy="19.5" r="1.5" fill="#D2D6DB"/>
<circle cx="244.5" cy="19.5" r="1.5" fill="#D2D6DB"/>
<circle cx="253.5" cy="19.5" r="1.5" fill="#D2D6DB"/>
<circle cx="262.5" cy="19.5" r="1.5" fill="#D2D6DB"/>
<circle cx="271.5" cy="19.5" r="1.5" fill="#D2D6DB"/>
<circle cx="280.5" cy="19.5" r="1.5" fill="#D2D6DB"/>
<circle cx="289.5" cy="19.5" r="1.5" fill="#D2D6DB"/>
<circle cx="298.5" cy="19.5" r="1.5" fill="#D2D6DB"/>
<circle cx="307.5" cy="19.5" r="1.5" fill="#D2D6DB"/>
<circle cx="316.5" cy="19.5" r="1.5" fill="#D2D6DB"/>
<circle cx="325.5" cy="19.5" r="1.5" fill="#D2D6DB"/>
<circle cx="334.5" cy="19.5" r="1.5" fill="#D2D6DB"/>
<circle cx="343.5" cy="19.5" r="1.5" fill="#D2D6DB"/>
<circle cx="352.5" cy="19.5" r="1.5" fill="#D2D6DB"/>
<circle cx="361.5" cy="19.5" r="1.5" fill="#D2D6DB"/>
<circle cx="370.5" cy="19.5" r="1.5" fill="#D2D6DB"/>
<circle cx="379.5" cy="19.5" r="1.5" fill="#D2D6DB"/>
<circle cx="388.5" cy="19.5" r="1.5" fill="#D2D6DB"/>
<circle cx="397.5" cy="19.5" r="1.5" fill="#D2D6DB"/>
<circle cx="406.5" cy="19.5" r="1.5" fill="#D2D6DB"/>
<circle cx="415.5" cy="19.5" r="1.5" fill="#D2D6DB"/>
<circle cx="424.5" cy="19.5" r="1.5" fill="#D2D6DB"/>
<circle cx="433.5" cy="19.5" r="1.5" fill="#D2D6DB"/>
<circle cx="442.5" cy="19.5" r="1.5" fill="#D2D6DB"/>
<circle cx="451.5" cy="19.5" r="1.5" fill="#D2D6DB"/>
<circle cx="460.5" cy="19.5" r="1.5" fill="#D2D6DB"/>
<circle cx="469.5" cy="19.5" r="1.5" fill="#D2D6DB"/>
<circle cx="478.5" cy="19.5" r="1.5" fill="#D2D6DB"/>
<circle cx="487.5" cy="19.5" r="1.5" fill="#D2D6DB"/>
<circle cx="496.5" cy="19.5" r="1.5" fill="#D2D6DB"/>
<circle cx="505.5" cy="19.5" r="1.5" fill="#D2D6DB"/>
<circle cx="514.5" cy="19.5" r="1.5" fill="#D2D6DB"/>
<circle cx="523.5" cy="19.5" r="1.5" fill="#D2D6DB"/>
<circle cx="532.5" cy="19.5" r="1.5" fill="#D2D6DB"/>
<circle cx="541.5" cy="19.5" r="1.5" fill="#D2D6DB"/>
<circle cx="550.5" cy="19.5" r="1.5" fill="#D2D6DB"/>
<circle cx="559.5" cy="19.5" r="1.5" fill="#D2D6DB"/>
<circle cx="568.5" cy="19.5" r="1.5" fill="#D2D6DB"/>
<circle cx="577.5" cy="19.5" r="1.5" fill="#D2D6DB"/>
<circle cx="586.5" cy="19.5" r="1.5" fill="#D2D6DB"/>
<circle cx="595.5" cy="19.5" r="1.5" fill="#D2D6DB"/>
<circle cx="604.5" cy="19.5" r="1.5" fill="#D2D6DB"/>
<circle cx="613.5" cy="19.5" r="1.5" fill="#D2D6DB"/>
<circle cx="622.5" cy="19.5" r="1.5" fill="#D2D6DB"/>
<circle cx="631.5" cy="19.5" r="1.5" fill="#D2D6DB"/>
<circle cx="640.5" cy="19.5" r="1.5" fill="#D2D6DB"/>
<circle cx="649.5" cy="19.5" r="1.5" fill="#D2D6DB"/>
<circle cx="658.5" cy="19.5" r="1.5" fill="#D2D6DB"/>
<circle cx="667.5" cy="19.5" r="1.5" fill="#D2D6DB"/>
<circle cx="676.5" cy="19.5" r="1.5" fill="#D2D6DB"/>
<circle cx="685.5" cy="19.5" r="1.5" fill="#D2D6DB"/>
<circle cx="694.5" cy="19.5" r="1.5" fill="#D2D6DB"/>
<circle cx="703.5" cy="19.5" r="1.5" fill="#D2D6DB"/>
<circle cx="712.5" cy="19.5" r="1.5" fill="#D2D6DB"/>
<circle cx="721.5" cy="19.5" r="1.5" fill="#D2D6DB"/>
<circle cx="730.5" cy="19.5" r="1.5" fill="#D2D6DB"/>
<circle cx="739.5" cy="19.5" r="1.5" fill="#D2D6DB"/>
<circle cx="748.5" cy="19.5" r="1.5" fill="#D2D6DB"/>
<circle cx="757.5" cy="19.5" r="1.5" fill="#D2D6DB"/>
<circle cx="766.5" cy="19.5" r="1.5" fill="#D2D6DB"/>
<circle cx="775.5" cy="19.5" r="1.5" fill="#D2D6DB"/>
<circle cx="784.5" cy="19.5" r="1.5" fill="#D2D6DB"/>
<circle cx="793.5" cy="19.5" r="1.5" fill="#D2D6DB"/>
<circle cx="802.5" cy="19.5" r="1.5" fill="#D2D6DB"/>
<circle cx="811.5" cy="19.5" r="1.5" fill="#D2D6DB"/>
<circle cx="820.5" cy="19.5" r="1.5" fill="#D2D6DB"/>
<circle cx="829.5" cy="19.5" r="1.5" fill="#D2D6DB"/>
<circle cx="838.5" cy="19.5" r="1.5" fill="#D2D6DB"/>
<circle cx="847.5" cy="19.5" r="1.5" fill="#D2D6DB"/>
<circle cx="856.5" cy="19.5" r="1.5" fill="#D2D6DB"/>
<circle cx="865.5" cy="19.5" r="1.5" fill="#D2D6DB"/>
<circle cx="874.5" cy="19.5" r="1.5" fill="#D2D6DB"/>
<circle cx="883.5" cy="19.5" r="1.5" fill="#D2D6DB"/>
<circle cx="892.5" cy="19.5" r="1.5" fill="#D2D6DB"/>
<circle cx="901.5" cy="19.5" r="1.5" fill="#D2D6DB"/>
<circle cx="910.5" cy="19.5" r="1.5" fill="#D2D6DB"/>
<circle cx="919.5" cy="19.5" r="1.5" fill="#D2D6DB"/>
<circle cx="928.5" cy="19.5" r="1.5" fill="#D2D6DB"/>
<circle cx="937.5" cy="19.5" r="1.5" fill="#D2D6DB"/>
<circle cx="946.5" cy="19.5" r="1.5" fill="#D2D6DB"/>
<circle cx="955.5" cy="19.5" r="1.5" fill="#D2D6DB"/>
<circle cx="964.5" cy="19.5" r="1.5" fill="#D2D6DB"/>
<circle cx="973.5" cy="19.5" r="1.5" fill="#D2D6DB"/>
<circle cx="982.5" cy="19.5" r="1.5" fill="#D2D6DB"/>
<circle cx="991.5" cy="19.5" r="1.5" fill="#D2D6DB"/>
<circle cx="1000.5" cy="19.5" r="1.5" fill="#D2D6DB"/>
<circle cx="1009.5" cy="19.5" r="1.5" fill="#D2D6DB"/>
<circle cx="1018.5" cy="19.5" r="1.5" fill="#D2D6DB"/>
<circle cx="1027.5" cy="19.5" r="1.5" fill="#D2D6DB"/>
<circle cx="1036.5" cy="19.5" r="1.5" fill="#D2D6DB"/>
<circle cx="1045.5" cy="19.5" r="1.5" fill="#D2D6DB"/>
<circle cx="1054.5" cy="19.5" r="1.5" fill="#D2D6DB"/>
<circle cx="1063.5" cy="19.5" r="1.5" fill="#D2D6DB"/>
<circle cx="1072.5" cy="19.5" r="1.5" fill="#D2D6DB"/>
<circle cx="1081.5" cy="19.5" r="1.5" fill="#D2D6DB"/>
</g>
<defs>
<clipPath id="clip0_249_3361">
<rect width="1083" height="21" fill="white"/>
</clipPath>
</defs>
</svg>
