<svg width="20" height="20" viewBox="0 0 20 20" fill="none" xmlns="http://www.w3.org/2000/svg">
<path d="M2.21736 20H4.44931V17.7697H6.66667V15.5539H8.88403V13.3382H11.116V15.5539H13.3333V17.7697H15.5653V20H17.7826V17.7697H20V15.5539H17.7826V13.3382H15.5653V11.1079H13.3333V8.89213H15.5653V6.67639H17.7826V4.44606H20V2.23032H17.7826V0H15.5653V2.23032H13.3333V4.44606H11.116V6.67639H8.88403V4.44606H6.66667V2.23032H4.44931V0H2.21736V2.23032H0V4.44606H2.21736V6.67639H4.44931V8.89213H6.66667V11.1079H4.44931V13.3382H2.21736V15.5539H0V17.7697H2.21736V20Z" fill="#E1E0DF"/>
</svg>
