<svg width="40" height="39" viewBox="0 0 40 39" fill="none" xmlns="http://www.w3.org/2000/svg">
<path d="M37.1438 15.6125H39.0438V23.225H37.1438V15.6125Z" fill="#E1E0DF"/>
<path d="M12.3813 15.6125H14.2813V13.7H16.1938V11.8H23.8063V13.7H25.7188V11.8H31.4313V13.7H33.3313V28.9375H35.2438V25.1375H37.1438V23.225H35.2438V15.6125H37.1438V13.7H35.2438V6.08749H33.3313V7.98749H31.4313V6.08749H27.6188V4.17499H14.2813V6.08749H12.3813V7.98749H10.4813V11.8H8.5688V6.08749H6.6688V11.8H4.7688V13.7H12.3813V15.6125Z" fill="#E1E0DF"/>
<path d="M31.4313 28.9375H33.3313V30.85H31.4313V28.9375Z" fill="#E1E0DF"/>
<path d="M31.4313 4.17499H33.3313V6.08749H31.4313V4.17499Z" fill="#E1E0DF"/>
<path d="M29.5188 25.1375H31.4313V27.0375H29.5188V25.1375Z" fill="#E1E0DF"/>
<path d="M29.5188 19.4125H31.4313V23.225H29.5188V19.4125Z" fill="#E1E0DF"/>
<path d="M29.5188 2.27502H31.4313V4.17502H29.5188V2.27502Z" fill="#E1E0DF"/>
<path d="M14.2813 30.85V34.6687H10.4813V36.5687H6.66882V38.4687H37.1438V36.5687H33.3313V34.6687H29.5188V32.7562H31.4313V30.8562L14.2813 30.85ZM27.6188 36.5625H20.0063V34.6687H16.1938V32.7562H27.6251L27.6188 36.5625Z" fill="#E1E0DF"/>
<path d="M23.8063 27.0375H29.5188V28.9375H23.8063V27.0375Z" fill="#E1E0DF"/>
<path d="M21.9062 25.1375H23.8062V27.0375H21.9062V25.1375Z" fill="#E1E0DF"/>
<path d="M20.0063 19.4125H21.9063V23.225H20.0063V19.4125Z" fill="#E1E0DF"/>
<path d="M20.0063 13.7H23.8063V15.6125H20.0063V13.7Z" fill="#E1E0DF"/>
<path d="M14.2812 15.6125H16.1938V23.225H14.2812V15.6125Z" fill="#E1E0DF"/>
<path d="M12.3813 0.375H29.5188V2.275H12.3813V0.375Z" fill="#E1E0DF"/>
<path d="M12.3813 28.9375H14.2813V30.85H12.3813V28.9375Z" fill="#E1E0DF"/>
<path d="M12.3813 23.225H14.2813V25.1375H12.3813V23.225Z" fill="#E1E0DF"/>
<path d="M4.7688 25.1375V27.0375H10.4813V28.9375H12.3813V25.1375H4.7688Z" fill="#E1E0DF"/>
<path d="M10.4813 2.27502H12.3813V4.17502H10.4813V2.27502Z" fill="#E1E0DF"/>
<path d="M8.56885 4.17499H10.4813V6.08749H8.56885V4.17499Z" fill="#E1E0DF"/>
<path d="M6.66882 15.6125H8.56882V17.5125H6.66882V15.6125Z" fill="#E1E0DF"/>
<path d="M4.7688 17.5125H6.6688V21.325H4.7688V17.5125Z" fill="#E1E0DF"/>
<path d="M2.85632 23.225H4.76882V25.1375H2.85632V23.225Z" fill="#E1E0DF"/>
<path d="M2.85632 13.7H4.76882V15.6125H2.85632V13.7Z" fill="#E1E0DF"/>
<path d="M0.956299 15.6125H2.8563V23.225H0.956299V15.6125Z" fill="#E1E0DF"/>
</svg>
