<svg width="40" height="33" viewBox="0 0 40 33" fill="none" xmlns="http://www.w3.org/2000/svg">
<path d="M38.1 17.1375H36.1875V19.0375H38.1V28.5625H40V3.79999H38.1V17.1375Z" fill="#E1E0DF"/>
<path d="M36.1875 28.5625H38.1V30.475H36.1875V28.5625Z" fill="#E1E0DF"/>
<path d="M36.1875 1.90002H38.1V3.80002H36.1875V1.90002Z" fill="#E1E0DF"/>
<path d="M34.2875 11.425H36.1875V13.325H34.2875V11.425Z" fill="#E1E0DF"/>
<path d="M17.15 30.475V28.5625H13.3375V30.475H3.8125V32.375H36.1875V30.475H17.15Z" fill="#E1E0DF"/>
<path d="M32.3875 17.1375H30.475V15.2375H24.7625V17.1375H22.8625V19.0375H19.05V20.95H22.8625V22.85H24.7625V24.75H28.575V22.85H32.3875V20.95H36.1875V19.0375H32.3875V17.1375Z" fill="#E1E0DF"/>
<path d="M32.3875 13.325H34.2875V15.2375H32.3875V13.325Z" fill="#E1E0DF"/>
<path d="M26.675 9.51251H28.5751V13.325H26.675V9.51251Z" fill="#E1E0DF"/>
<path d="M20.95 24.75H24.7625V26.6625H20.95V24.75Z" fill="#E1E0DF"/>
<path d="M20.95 13.325H22.8625V15.2375H20.95V13.325Z" fill="#E1E0DF"/>
<path d="M19.05 11.425H20.95V13.325H19.05V11.425Z" fill="#E1E0DF"/>
<path d="M17.15 26.6625H20.95V28.5625H17.15V26.6625Z" fill="#E1E0DF"/>
<path d="M15.2375 17.1375H19.05V19.0375H15.2375V17.1375Z" fill="#E1E0DF"/>
<path d="M9.52502 15.2375H15.2375V17.1375H9.52502V15.2375Z" fill="#E1E0DF"/>
<path d="M5.71252 17.1375H9.52502V19.0375H5.71252V17.1375Z" fill="#E1E0DF"/>
<path d="M3.8125 0H36.1875V1.9H3.8125V0Z" fill="#E1E0DF"/>
<path d="M3.8125 19.0375H5.7125V20.95H3.8125V19.0375Z" fill="#E1E0DF"/>
<path d="M1.91248 28.5625H3.81248V30.475H1.91248V28.5625Z" fill="#E1E0DF"/>
<path d="M1.91248 1.90002H3.81248V3.80002H1.91248V1.90002Z" fill="#E1E0DF"/>
<path d="M1.9125 22.85H3.8125V20.95H1.9125V3.79999H0V28.5625H1.9125V22.85Z" fill="#E1E0DF"/>
</svg>
