<svg width="40" height="41" viewBox="0 0 40 41" fill="none" xmlns="http://www.w3.org/2000/svg">
<g clip-path="url(#clip0_224_2583)">
<path d="M36.2 8.09375V0.46875H17.15V2.36875H9.525V4.28125H3.8125V17.6187H1.9125V21.4188H0V40.4688H40V8.09375H36.2ZM9.525 38.5687H1.9125V27.1313H9.525V38.5687ZM9.525 25.2313H5.725V6.18125H9.525V25.2313ZM11.4375 4.28125H17.15V6.18125H13.3375V25.2313H11.4375V4.28125ZM17.15 8.09375V25.2313H15.25V8.09375H17.15ZM19.05 38.5687H11.4375V27.1313H19.05V38.5687ZM38.1 38.5687H20.9625V25.2313H19.05V2.36875H34.2875V8.09375H28.575V9.99375H38.1V38.5687Z" fill="#E1E0DF"/>
<path d="M32.3875 27.1312H34.2874V29.0437H32.3875V27.1312Z" fill="#E1E0DF"/>
<path d="M32.3875 23.3312H34.2874V25.2312H32.3875V23.3312Z" fill="#E1E0DF"/>
<path d="M28.575 29.0438H32.3875V30.9438H28.575V29.0438Z" fill="#E1E0DF"/>
<path d="M26.675 27.1312H28.5751V29.0437H26.675V27.1312Z" fill="#E1E0DF"/>
<path d="M26.675 23.3312H28.5751V25.2312H26.675V23.3312Z" fill="#E1E0DF"/>
<path d="M26.675 9.99377H28.5751V13.8063H26.675V9.99377Z" fill="#E1E0DF"/>
<path d="M24.7625 13.8063H26.6749V17.6188H24.7625V13.8063Z" fill="#E1E0DF"/>
<path d="M22.8625 17.6188H24.7626V21.4188H22.8625V17.6188Z" fill="#E1E0DF"/>
<path d="M22.8625 4.28125H24.7626V6.18125H22.8625V4.28125Z" fill="#E1E0DF"/>
<path d="M20.9625 21.4188H22.8625V25.2313H20.9625V21.4188Z" fill="#E1E0DF"/>
<path d="M13.3375 30.9437H17.15V34.7562H13.3375V30.9437Z" fill="#E1E0DF"/>
<path d="M3.8125 30.9437H7.625V34.7562H3.8125V30.9437Z" fill="#E1E0DF"/>
</g>
<defs>
<clipPath id="clip0_224_2583">
<rect width="40" height="40" fill="white" transform="translate(0 0.46875)"/>
</clipPath>
</defs>
</svg>
