<svg width="40" height="41" viewBox="0 0 40 41" fill="none" xmlns="http://www.w3.org/2000/svg">
<g clip-path="url(#clip0_224_2600)">
<path d="M38.0875 8.09375H40V40.4688H38.0875V8.09375Z" fill="#E1E0DF"/>
<path d="M36.1875 6.18124H38.0875V8.09374H36.1875V6.18124Z" fill="#E1E0DF"/>
<path d="M34.275 4.28125H36.1875V6.18125H34.275V4.28125Z" fill="#E1E0DF"/>
<path d="M32.375 2.36874H34.275V4.28124H32.375V2.36874Z" fill="#E1E0DF"/>
<path d="M3.80002 0.46875V8.09375H5.71252V9.99375H7.61252V27.1313H5.71252V29.0438H3.80002V30.9438H1.90002V32.8438H26.6625V40.4688H28.5625V30.9438H30.475V29.0438H32.375V27.1313H34.275V9.99375H32.375V8.09375H30.475V2.36875H32.375V0.46875H3.80002ZM13.325 2.36875H28.5625V6.18125H13.325V2.36875ZM9.51252 2.36875H11.425V6.18125H9.51252V2.36875ZM5.71252 6.18125V2.36875H7.61252V6.18125H5.71252ZM11.425 29.0438H9.51252V30.9438H7.61252V29.0438H9.51252V27.1313H11.425V29.0438ZM17.1375 29.0438H15.2375V30.9438H13.325V29.0438H15.2375V27.1313H17.1375V29.0438ZM26.6625 30.9438H20.95V29.0438H26.6625V30.9438ZM28.5625 25.2313H13.325V13.8062H28.5625V25.2313ZM30.475 11.8938H9.51252V9.99375H30.475V11.8938Z" fill="#E1E0DF"/>
<path d="M24.75 19.5187H26.6625V21.4187H24.75V19.5187Z" fill="#E1E0DF"/>
<path d="M22.85 15.7062H24.75V17.6062H22.85V15.7062Z" fill="#E1E0DF"/>
<path d="M24.75 40.4688V36.6562H19.0375V40.4688H20.95V38.5687H22.85V40.4688H24.75Z" fill="#E1E0DF"/>
<path d="M17.1375 21.4188H24.75V23.3313H17.1375V21.4188Z" fill="#E1E0DF"/>
<path d="M17.1375 15.7062H19.0375V17.6062H17.1375V15.7062Z" fill="#E1E0DF"/>
<path d="M15.2375 19.5187H17.1375V21.4187H15.2375V19.5187Z" fill="#E1E0DF"/>
<path d="M0 32.8438H1.9V40.4688H0V32.8438Z" fill="#E1E0DF"/>
</g>
<defs>
<clipPath id="clip0_224_2600">
<rect width="40" height="40" fill="white" transform="translate(0 0.46875)"/>
</clipPath>
</defs>
</svg>
