<svg width="80" height="80" viewBox="0 0 80 80" fill="none" xmlns="http://www.w3.org/2000/svg">
<path d="M75.9841 49.525H79.9999V60.95H75.9841V49.525Z" fill="black"/>
<path d="M75.9843 0H71.9948V3.8H67.979V7.625H71.9948V11.425H75.9843V7.625H80V3.8H75.9843V0Z" fill="black"/>
<path d="M71.9946 26.675H75.9841V49.525H71.9946V26.675Z" fill="black"/>
<path d="M67.979 60.95H75.9843V64.75H67.979V60.95Z" fill="black"/>
<path d="M67.979 19.05H71.9948V26.675H67.979V19.05Z" fill="black"/>
<path d="M63.9895 64.75H67.979V68.575H63.9895V64.75Z" fill="black"/>
<path d="M63.9895 53.325H67.979V60.95H63.9895V53.325Z" fill="black"/>
<path d="M63.9895 15.25H67.979V19.05H63.9895V15.25Z" fill="black"/>
<path d="M60 68.575H63.9895V72.375H60V68.575Z" fill="black"/>
<path d="M63.9894 26.675H59.9999V30.475H55.9841V34.275H59.9999V38.1H63.9894V34.275H67.9789V30.475H63.9894V26.675Z" fill="black"/>
<path d="M55.9841 11.425H63.9894V15.25H55.9841V11.425Z" fill="black"/>
<path d="M51.9949 72.375H60.0001V76.2H51.9949V72.375Z" fill="black"/>
<path d="M43.9895 38.1V49.525H55.9843V38.1H43.9895ZM51.9948 45.725H47.979V41.9H51.9948V45.725Z" fill="black"/>
<path d="M23.9895 76.2H51.9948V80H23.9895V76.2Z" fill="black"/>
<path d="M40 53.325H43.9895V60.95H40V53.325Z" fill="black"/>
<path d="M35.9844 7.625H55.9844V11.425H35.9844V7.625Z" fill="black"/>
<path d="M35.9841 38.1H39.9999V34.275H43.9894V30.475H39.9999V26.675H35.9841V30.475H31.9946V34.275H35.9841V38.1Z" fill="black"/>
<path d="M31.9946 60.95H39.9999V64.75H31.9946V60.95Z" fill="black"/>
<path d="M28.0054 11.425H35.9844V15.25H28.0054V11.425Z" fill="black"/>
<path d="M28.0054 53.325H31.9949V60.95H28.0054V53.325Z" fill="black"/>
<path d="M23.9895 15.25H28.0052V19.05H23.9895V15.25Z" fill="black"/>
<path d="M23.9895 0H28.0052V3.8H23.9895V0Z" fill="black"/>
<path d="M15.9841 72.375H23.9894V76.2H15.9841V72.375Z" fill="black"/>
<path d="M20.0002 19.05H23.9897V26.675H20.0002V19.05Z" fill="black"/>
<path d="M15.9841 26.675H19.9999V49.525H15.9841V26.675Z" fill="black"/>
<path d="M11.9949 68.575H15.9844V72.375H11.9949V68.575Z" fill="black"/>
<path d="M11.9949 11.425H15.9844V22.85H11.9949V11.425Z" fill="black"/>
<path d="M8.00513 64.75H11.9946V68.575H8.00513V64.75Z" fill="black"/>
<path d="M8.00513 49.525H15.9841V53.325H8.00513V49.525Z" fill="black"/>
<path d="M3.9895 7.625H11.9948V11.425H3.9895V7.625Z" fill="black"/>
<path d="M3.9895 60.95H8.00525V64.75H3.9895V60.95Z" fill="black"/>
<path d="M3.9895 45.725H8.00525V49.525H3.9895V45.725Z" fill="black"/>
<path d="M0 22.85H11.9948V26.675H0V22.85Z" fill="black"/>
<path d="M3.9895 15.25H8.00525V19.05H3.9895V15.25Z" fill="black"/>
<path d="M0 49.525H3.9895V60.95H0V49.525Z" fill="black"/>
<path d="M0 34.275H3.9895V38.1H0V34.275Z" fill="black"/>
<path d="M0 11.425H3.9895V15.25H0V11.425Z" fill="black"/>
</svg>
